<?xml version="1.0" standalone="no"?>
<!DOCTYPE svg PUBLIC "-//W3C//DTD SVG 20010904//EN"
 "http://www.w3.org/TR/2001/REC-SVG-20010904/DTD/svg10.dtd">
<svg version="1.0" xmlns="http://www.w3.org/2000/svg"
 width="1600.000000pt" height="900.000000pt" viewBox="0 0 1600.000000 900.000000"
 preserveAspectRatio="xMidYMid meet">

<g transform="translate(0.000000,900.000000) scale(0.100000,-0.100000)"
fill="#000000" stroke="none">
<path d="M8135 7979 c-121 -55 -240 -109 -265 -121 -25 -11 -74 -34 -110 -50
-36 -16 -90 -40 -120 -54 -30 -14 -185 -85 -344 -157 -217 -99 -294 -139 -310
-160 -20 -28 -21 -39 -24 -434 -2 -378 -4 -404 -20 -398 -9 4 -39 15 -67 25
-27 10 -147 55 -265 100 -263 101 -405 150 -428 150 -28 0 -505 -362 -520
-394 -9 -21 -12 -348 -12 -1522 0 -1642 -4 -1536 60 -1569 17 -9 56 -15 95
-15 l65 0 0 -165 0 -165 -114 0 c-134 0 -168 -10 -197 -56 -26 -43 -20 -90 18
-128 l26 -26 2399 0 2399 0 24 24 c47 47 44 121 -8 160 -27 20 -43 21 -268 24
l-239 3 2 162 3 162 188 5 189 5 29 33 29 32 0 1515 0 1515 -27 29 c-16 16
-154 105 -308 197 -269 162 -282 168 -330 167 -40 -2 -506 -76 -617 -99 l-28
-6 0 392 c0 335 -2 397 -16 423 -10 21 -104 103 -260 227 -324 258 -341 270
-378 270 -17 0 -128 -44 -251 -101z m143 -2006 l-3 -1828 -406 -5 c-439 -5
-425 -3 -455 -61 -11 -22 -14 -78 -14 -256 l0 -228 -107 2 -108 3 -3 1853 -2
1853 47 23 c27 13 145 67 263 121 118 54 247 112 285 130 39 18 115 52 170 77
55 25 147 67 205 94 58 27 111 49 118 49 10 0 12 -369 10 -1827z m385 1642
l157 -126 0 -378 0 -377 -137 -23 c-76 -13 -150 -25 -165 -28 l-28 -5 0 531
c0 292 4 531 8 531 4 0 78 -56 165 -125z m925 -2497 l-3 -1523 -100 2 c-55 1
-103 2 -107 2 -5 1 -8 102 -8 226 0 181 -3 232 -15 255 -32 61 -21 60 -462 60
l-403 0 0 1159 0 1159 23 5 c12 3 137 24 277 47 140 23 368 61 505 85 138 24
260 43 273 44 l22 1 -2 -1522z m-3026 1402 c249 -93 289 -108 358 -137 l40
-16 0 -1383 0 -1383 -326 -3 c-179 -2 -328 -1 -330 1 -9 9 -4 3011 5 3011 6 0
119 -41 253 -90z m3438 -56 l135 -81 0 -1392 0 -1392 -162 -2 -163 -2 -2 1465
c-2 806 -2 1478 0 1493 l3 28 27 -17 c15 -10 88 -55 162 -100z m-3910 -1388
l0 -1475 -110 -3 -110 -3 0 1400 1 1400 102 77 c56 42 105 77 110 77 4 1 7
-662 7 -1473z m3060 -1586 l0 -440 -765 0 -765 0 0 440 0 440 765 0 765 0 0
-440z m-1750 -275 l0 -165 -657 0 -658 0 2 162 c1 90 3 164 3 166 0 1 295 2
655 2 l655 0 0 -165z m2300 0 l0 -165 -165 0 -165 0 0 165 0 165 165 0 165 0
0 -165z"/>
<path d="M7407 7204 c-4 -4 -7 -103 -7 -221 l0 -213 110 0 110 0 -2 218 -3
217 -101 3 c-55 1 -103 0 -107 -4z"/>
<path d="M7730 6990 l0 -221 108 3 107 3 0 215 0 215 -107 3 -108 3 0 -221z"/>
<path d="M7400 6445 l0 -215 110 0 110 0 0 215 0 215 -110 0 -110 0 0 -215z"/>
<path d="M7730 6445 l0 -215 110 0 109 0 -2 213 -2 212 -107 3 -108 3 0 -216z"/>
<path d="M7400 5895 l0 -215 110 0 110 0 0 215 0 215 -110 0 -110 0 0 -215z"/>
<path d="M7730 5895 l0 -216 108 3 107 3 0 210 0 210 -107 3 -108 3 0 -216z"/>
<path d="M7405 5562 c-3 -3 -5 -101 -5 -219 l0 -213 110 0 110 0 -2 218 -3
217 -103 1 c-56 0 -104 -2 -107 -4z"/>
<path d="M7743 5563 c-10 -3 -13 -57 -13 -219 l0 -214 104 0 c99 0 104 1 110
23 3 12 6 108 6 213 0 166 -2 193 -16 198 -19 7 -173 7 -191 -1z"/>
<path d="M7402 4803 l3 -218 85 -3 c143 -5 130 -27 130 223 l0 215 -110 0
-110 0 2 -217z"/>
<path d="M8610 6180 c0 -82 -1 -153 -2 -157 -2 -5 45 -9 105 -11 l107 -3 0
161 0 160 -105 0 -105 0 0 -150z"/>
<path d="M8930 6170 l0 -160 110 0 110 0 0 160 0 160 -110 0 -110 0 0 -160z"/>
<path d="M9260 6170 l0 -160 110 0 110 0 0 160 0 160 -110 0 -110 0 0 -160z"/>
<path d="M8610 5730 l0 -160 105 0 105 0 0 160 0 160 -105 0 -105 0 0 -160z"/>
<path d="M8930 5730 l0 -160 110 0 110 0 0 160 0 160 -110 0 -110 0 0 -160z"/>
<path d="M9260 5730 l0 -160 110 0 110 0 0 160 0 160 -110 0 -110 0 0 -160z"/>
<path d="M8628 5453 c-10 -2 -18 -10 -18 -16 -1 -7 -2 -78 -3 -160 l-2 -147
108 0 107 0 0 159 c0 136 -2 160 -16 165 -18 7 -150 6 -176 -1z"/>
<path d="M8947 5453 c-16 -4 -17 -18 -15 -161 l3 -157 108 -3 107 -3 0 159 c0
157 0 160 -22 166 -26 7 -154 6 -181 -1z"/>
<path d="M9273 5453 c-10 -3 -13 -46 -13 -164 l0 -159 110 0 110 0 0 159 0
159 -31 6 c-37 7 -158 7 -176 -1z"/>
<path d="M8609 4893 c-1 -71 -2 -144 -3 -163 l-1 -35 108 -3 107 -3 0 166 0
165 -105 0 -105 0 -1 -127z"/>
<path d="M8930 4855 l0 -165 110 0 110 0 0 165 0 165 -110 0 -110 0 0 -165z"/>
<path d="M8610 4420 l0 -160 105 0 105 0 0 160 0 160 -105 0 -105 0 0 -160z"/>
<path d="M6530 5895 l0 -215 105 0 105 0 0 215 0 215 -105 0 -105 0 0 -215z"/>
<path d="M6535 5562 c-3 -3 -5 -101 -5 -219 l0 -213 105 0 105 0 -2 217 -3
216 -97 3 c-53 1 -100 -1 -103 -4z"/>
<path d="M6530 4800 l0 -221 103 3 102 3 3 218 2 217 -105 0 -105 0 0 -220z"/>
<path d="M6530 4256 l0 -215 101 -3 c55 -2 103 -1 105 1 2 2 4 100 4 218 l0
213 -105 0 -105 0 0 -214z"/>
<path d="M7840 3705 l0 -105 545 0 545 0 0 105 0 105 -545 0 -545 0 0 -105z"/>
<path d="M7840 3380 l0 -110 545 0 546 0 -3 108 -3 107 -542 3 -543 2 0 -110z"/>
<path d="M7185 2606 c-98 -34 -149 -79 -191 -169 -49 -108 -20 -243 69 -324
122 -110 293 -104 409 13 42 41 78 125 78 180 l0 35 -137 -3 -137 -3 1 -32 c1
-18 2 -37 2 -43 1 -6 32 -10 71 -10 41 0 70 -4 70 -10 0 -25 -67 -80 -112 -92
-197 -51 -301 225 -124 333 61 37 160 20 204 -36 18 -22 27 -25 87 -25 l66 0
-23 41 c-66 118 -219 184 -333 145z"/>
<path d="M7870 2568 c-12 -29 -55 -134 -95 -233 -40 -99 -83 -202 -94 -228
-12 -27 -21 -51 -21 -53 0 -2 29 -4 64 -4 l63 0 20 53 20 52 115 3 114 3 18
-56 17 -55 65 0 c35 0 64 2 64 4 0 2 -27 70 -60 152 -33 82 -84 209 -113 281
l-52 133 -51 0 -51 0 -23 -52z m93 -150 c19 -48 47 -139 47 -150 0 -5 -31 -8
-70 -8 -38 0 -70 3 -70 8 0 15 65 192 71 192 3 0 14 -19 22 -42z"/>
<path d="M9728 2558 c-14 -35 -59 -146 -101 -248 -41 -102 -82 -202 -91 -223
l-17 -38 67 3 67 3 20 53 20 52 111 0 111 0 20 -52 21 -53 62 -3 c34 -2 62 1
62 5 0 4 -43 114 -96 243 -52 129 -102 254 -111 278 l-15 42 -52 0 -53 0 -25
-62z m122 -210 c15 -42 26 -79 22 -82 -3 -3 -37 -6 -75 -6 -51 0 -68 3 -65 13
3 6 20 54 38 106 29 82 35 91 43 70 5 -13 21 -59 37 -101z"/>
<path d="M5340 2326 l0 -286 60 0 60 0 0 100 0 100 53 0 c75 0 123 16 161 55
64 64 69 185 10 249 -52 55 -68 60 -211 64 l-133 4 0 -286z m249 158 c12 -15
21 -41 21 -59 0 -18 -9 -44 -21 -59 -18 -22 -28 -26 -75 -26 l-54 0 0 85 0 85
54 0 c47 0 57 -4 75 -26z"/>
<path d="M5860 2325 l0 -285 165 0 165 0 0 55 0 55 -105 0 -105 0 0 60 0 60
100 0 100 0 0 55 0 55 -100 0 -100 0 0 60 0 60 105 0 105 0 0 55 0 55 -165 0
-165 0 0 -285z"/>
<path d="M6360 2325 l0 -285 60 0 60 0 0 178 c1 141 3 174 13 161 7 -9 52 -89
101 -178 l90 -161 63 0 63 0 -2 283 -3 282 -62 3 -63 3 -2 -176 -3 -176 -20
38 c-28 54 -91 167 -137 246 l-39 67 -59 0 -60 0 0 -285z"/>
<path d="M8350 2325 l0 -285 96 0 c119 0 176 14 235 56 130 94 157 260 63 395
-60 87 -141 119 -298 119 l-96 0 0 -285z m254 142 c45 -30 66 -75 66 -143 0
-98 -53 -157 -153 -170 l-47 -7 0 175 0 174 53 -6 c30 -3 66 -14 81 -23z"/>
<path d="M8940 2413 c0 -213 7 -256 47 -303 45 -54 97 -74 188 -74 119 1 183
39 218 132 14 34 17 80 17 242 l0 200 -62 0 -63 0 3 -157 c4 -188 -2 -235 -32
-270 -20 -23 -30 -26 -79 -25 -66 2 -93 16 -107 56 -5 16 -10 112 -10 212 l0
184 -60 0 -60 0 0 -197z"/>
<path d="M10210 2325 l0 -285 66 0 65 0 -2 170 c-2 93 -1 172 2 175 5 4 152
-255 180 -317 11 -26 16 -28 76 -28 l63 0 0 285 0 285 -60 0 -60 0 -2 -177 -3
-178 -21 35 c-12 19 -56 99 -99 178 l-77 142 -64 0 -64 0 0 -285z"/>
<path d="M5910 1565 c0 -158 1 -165 20 -165 19 0 20 7 21 118 0 79 3 112 10
102 5 -8 31 -51 57 -94 26 -44 52 -81 57 -82 6 -2 34 39 64 91 30 52 58 95 63
95 4 0 8 -52 8 -115 0 -108 1 -115 20 -115 19 0 20 7 20 165 0 156 -1 165 -19
165 -14 0 -36 -30 -81 -110 -34 -60 -66 -112 -70 -115 -5 -3 -14 5 -21 17 -44
87 -123 208 -135 208 -11 0 -14 -30 -14 -165z"/>
<path d="M6541 1708 c-5 -13 -36 -84 -70 -160 -33 -75 -61 -139 -61 -142 0 -3
8 -6 18 -6 12 0 25 14 37 40 10 22 23 40 29 41 17 1 108 1 139 0 23 -1 32 -8
45 -41 13 -29 23 -40 39 -40 l23 0 -26 58 c-15 31 -41 92 -60 134 -18 42 -40
90 -49 107 -19 37 -52 41 -64 9z m69 -108 c16 -40 30 -74 30 -76 0 -2 -31 -4
-70 -4 -38 0 -70 2 -70 4 0 9 73 156 76 153 2 -2 17 -36 34 -77z"/>
<path d="M6933 1715 c-56 -24 -71 -88 -30 -129 14 -14 48 -29 80 -36 54 -12
97 -39 97 -60 0 -6 -9 -19 -20 -30 -25 -25 -101 -27 -144 -5 -36 19 -36 19
-36 -3 0 -36 103 -62 163 -43 47 16 71 45 71 86 0 43 -19 59 -94 81 -100 29
-127 66 -75 100 23 15 84 16 134 3 31 -9 20 22 -13 36 -44 18 -91 19 -133 0z"/>
<path d="M7266 1698 c9 -18 36 -65 60 -104 40 -63 44 -77 44 -132 0 -59 1 -62
25 -62 24 0 25 3 25 59 0 50 6 69 36 123 95 164 88 148 66 148 -14 0 -33 -24
-68 -85 -27 -47 -52 -85 -56 -85 -4 0 -30 38 -58 85 -36 60 -57 85 -71 85 -19
0 -19 -1 -3 -32z"/>
<path d="M7765 1654 c-19 -42 -35 -78 -35 -80 0 -1 -16 -37 -35 -78 -40 -87
-42 -96 -17 -96 10 1 25 17 37 42 l20 42 60 -1 c121 -2 114 0 131 -43 11 -27
22 -40 35 -40 10 0 19 4 19 10 0 5 -31 78 -69 162 -86 190 -95 195 -146 82z
m90 -50 c19 -42 35 -78 35 -80 0 -2 -32 -4 -71 -4 -53 0 -70 3 -66 13 40 100
60 147 63 147 3 0 20 -34 39 -76z"/>
<path d="M8150 1565 c0 -158 1 -165 20 -165 17 0 20 7 20 50 l0 50 55 0 c54 0
54 0 87 -50 24 -37 39 -50 56 -50 23 0 23 1 -12 49 -20 27 -36 52 -36 55 0 3
14 19 32 35 27 24 31 35 31 74 0 82 -53 117 -178 117 l-75 0 0 -165z m188 109
c31 -21 31 -85 0 -114 -17 -16 -35 -20 -85 -20 l-63 0 0 75 0 75 63 0 c40 0
70 -5 85 -16z"/>
<path d="M8666 1678 c-58 -123 -116 -258 -116 -268 0 -5 8 -10 18 -10 10 0 23
15 34 40 17 41 20 42 88 42 110 0 109 1 126 -42 11 -27 22 -40 35 -40 26 0 25
9 -21 106 -22 47 -40 87 -40 89 0 2 -14 33 -30 69 -39 84 -59 87 -94 14z m79
-70 c15 -35 29 -69 32 -75 4 -10 -13 -13 -66 -13 -39 0 -71 2 -71 4 0 2 7 20
15 40 8 20 22 52 29 71 8 19 19 35 24 35 5 0 22 -28 37 -62z"/>
<path d="M9040 1565 c0 -158 1 -165 20 -165 17 0 20 7 20 43 0 35 6 49 31 73
l30 29 37 -40 c20 -22 49 -55 64 -73 19 -23 35 -32 50 -30 19 3 13 13 -51 91
l-72 88 68 72 c56 60 64 72 48 76 -14 2 -44 -22 -107 -88 -48 -50 -90 -91 -93
-91 -3 0 -5 41 -5 90 0 83 -1 90 -20 90 -19 0 -20 -7 -20 -165z"/>
<path d="M9546 1658 c-130 -282 -121 -258 -95 -258 14 0 25 11 37 40 11 27 24
40 37 41 27 1 126 1 146 0 9 -1 24 -19 34 -41 12 -26 25 -40 37 -40 10 0 18 3
18 6 0 4 -27 66 -59 138 -33 72 -64 143 -70 159 -7 17 -18 27 -31 27 -16 0
-29 -17 -54 -72z m90 -60 l33 -73 -66 -3 c-36 -2 -68 -1 -70 2 -3 3 1 20 10
38 8 18 23 52 32 76 10 24 20 40 23 38 3 -3 20 -38 38 -78z"/>
<path d="M9880 1710 c0 -18 7 -20 55 -20 l55 0 0 -145 c0 -138 1 -145 20 -145
19 0 20 7 20 145 l0 145 55 0 c48 0 55 2 55 20 0 19 -7 20 -130 20 -123 0
-130 -1 -130 -20z"/>
</g>
</svg>
