<?xml version="1.0" standalone="no"?>
<!DOCTYPE svg PUBLIC "-//W3C//DTD SVG 20010904//EN"
 "http://www.w3.org/TR/2001/REC-SVG-20010904/DTD/svg10.dtd">
<svg version="1.0" xmlns="http://www.w3.org/2000/svg"
 width="1600.000000pt" height="900.000000pt" viewBox="0 0 1600.000000 900.000000"
 preserveAspectRatio="xMidYMid meet">

<g transform="translate(0.000000,900.000000) scale(0.100000,-0.100000)"
fill="#000000" stroke="none">
<path d="M4085 6974 c-126 -57 -249 -113 -272 -124 -24 -11 -62 -29 -85 -39
-157 -72 -645 -294 -700 -319 -113 -51 -108 -27 -108 -494 0 -219 -3 -398 -7
-398 -5 0 -66 23 -138 51 -71 28 -159 61 -195 74 -63 22 -227 84 -340 128
-102 40 -98 42 -367 -161 -133 -100 -247 -190 -253 -201 -7 -13 -10 -500 -10
-1533 l0 -1514 31 -30 c27 -26 39 -30 107 -34 l77 -5 3 -162 2 -163 -107 0
c-135 0 -178 -11 -204 -53 -27 -43 -20 -104 16 -134 l26 -23 2400 0 2400 0 24
25 c37 36 36 114 -1 149 -37 34 -62 37 -299 36 l-210 -2 -3 166 -2 166 185 0
185 0 32 29 33 29 3 1507 c2 1329 0 1510 -13 1538 -14 30 -60 66 -145 114 -19
11 -126 75 -237 142 -112 67 -214 126 -227 131 -16 6 -47 5 -83 -1 -32 -5 -85
-13 -118 -19 -33 -5 -154 -25 -270 -44 -115 -20 -211 -36 -212 -36 -2 0 -3
170 -3 378 0 231 -4 392 -11 415 -9 33 -40 61 -256 235 -346 278 -352 282
-387 282 -17 -1 -134 -48 -261 -106z m145 -2004 l0 -1829 -406 -3 -406 -3 -29
-33 -29 -32 0 -240 0 -240 -110 0 -110 0 0 1839 c0 1012 -3 1847 -6 1855 -5
13 15 26 92 62 55 25 128 59 164 76 36 17 108 50 160 73 52 23 120 54 150 68
116 56 515 236 523 236 4 1 7 -822 7 -1829z m391 1643 l159 -128 0 -377 c0
-208 -4 -378 -8 -378 -4 0 -75 -11 -158 -25 -82 -14 -152 -25 -156 -25 -5 0
-8 239 -8 530 0 292 3 530 6 530 3 0 77 -57 165 -127z m929 -2493 l0 -1520
-22 -5 c-13 -3 -63 -5 -113 -3 l-90 3 -3 242 -2 241 -36 31 -35 31 -399 0
-400 0 0 1160 0 1159 38 6 c37 6 51 8 152 26 30 5 82 13 115 19 79 12 473 77
550 91 155 28 211 37 228 38 16 1 17 -78 17 -1519z m-3232 1474 c20 -9 84 -33
142 -54 58 -21 134 -49 170 -63 36 -14 108 -41 160 -61 52 -19 103 -38 113
-41 16 -7 17 -80 15 -1394 l-3 -1386 -325 0 -325 0 -3 1508 c-1 1034 1 1507 8
1507 6 0 27 -7 48 -16z m3623 -122 l148 -87 1 -1397 0 -1398 -149 0 c-82 0
-156 3 -165 6 -15 6 -16 146 -16 1491 0 1382 1 1485 17 1479 9 -4 83 -46 164
-94z m-3894 -1405 l-2 -1472 -110 0 -110 0 -3 1396 -2 1396 47 33 c27 19 50
37 53 40 3 3 21 17 40 30 19 14 44 32 54 42 10 9 23 15 27 12 5 -3 8 -667 6
-1477z m3058 -1580 l0 -437 -765 0 -765 0 -3 434 c-2 408 -1 435 15 439 10 3
356 4 768 3 l750 -1 0 -438z m-1745 -272 l0 -165 -650 0 c-357 0 -653 0 -657
0 -9 0 -16 297 -9 317 4 10 134 13 661 13 l655 0 0 -165z m2295 -3 l0 -164
-165 1 -165 0 -3 153 c-1 84 0 158 3 165 3 11 40 13 167 11 l163 -3 0 -163z"/>
<path d="M3360 5990 l0 -220 105 0 105 0 -2 218 -3 217 -102 3 -103 3 0 -221z"/>
<path d="M3703 6204 c-10 -4 -13 -58 -13 -220 l0 -214 105 0 105 0 -2 218 -3
217 -90 2 c-49 1 -96 -1 -102 -3z"/>
<path d="M3360 5440 l0 -220 105 0 105 0 0 220 0 220 -105 0 -105 0 0 -220z"/>
<path d="M3690 5440 l0 -220 105 0 105 0 0 220 0 220 -105 0 -105 0 0 -220z"/>
<path d="M3360 4895 l0 -215 105 0 105 0 0 215 0 215 -105 0 -105 0 0 -215z"/>
<path d="M3690 4895 l0 -215 105 0 105 0 0 215 0 215 -105 0 -105 0 0 -215z"/>
<path d="M3360 4345 l0 -215 105 0 105 0 0 215 0 215 -105 0 -105 0 0 -215z"/>
<path d="M3690 4345 l0 -215 105 0 105 0 0 215 0 215 -105 0 -105 0 0 -215z"/>
<path d="M3360 3800 l0 -220 105 0 105 0 0 220 0 220 -105 0 -105 0 0 -220z"/>
<path d="M4560 5171 c0 -139 2 -160 17 -165 9 -4 58 -6 110 -5 l93 1 0 164 0
164 -110 0 -110 0 0 -159z"/>
<path d="M4890 5167 l0 -164 108 1 107 1 0 160 0 160 -107 3 -108 3 0 -164z"/>
<path d="M5220 5165 l0 -165 105 0 104 0 3 165 3 165 -107 0 -108 0 0 -165z"/>
<path d="M4560 4730 l0 -160 110 0 110 0 0 160 0 160 -110 0 -110 0 0 -160z"/>
<path d="M4890 4730 l0 -160 110 0 110 0 0 160 0 160 -110 0 -110 0 0 -160z"/>
<path d="M5220 4730 l0 -160 108 0 107 0 -1 158 -2 157 -106 3 -106 3 0 -161z"/>
<path d="M4560 4290 l0 -160 110 0 110 0 0 160 0 160 -110 0 -110 0 0 -160z"/>
<path d="M4890 4290 l0 -160 110 0 111 0 -3 158 -3 157 -107 3 -108 3 0 -161z"/>
<path d="M5220 4290 l0 -160 105 0 104 0 3 160 3 160 -107 0 -108 0 0 -160z"/>
<path d="M4560 3855 l0 -165 110 0 110 0 0 165 0 165 -110 0 -110 0 0 -165z"/>
<path d="M4890 3855 l0 -165 110 0 110 0 0 165 0 165 -110 0 -110 0 0 -165z"/>
<path d="M4560 3415 l0 -166 110 2 110 1 0 164 0 164 -110 0 -110 0 0 -165z"/>
<path d="M2480 4895 l0 -215 110 0 110 0 0 215 0 215 -110 0 -110 0 0 -215z"/>
<path d="M2480 4345 l0 -215 110 0 110 0 0 215 0 215 -110 0 -110 0 0 -215z"/>
<path d="M2480 3800 l0 -220 110 0 110 0 0 220 0 220 -110 0 -110 0 0 -220z"/>
<path d="M2480 3256 c0 -177 2 -215 14 -219 8 -3 57 -5 108 -4 l93 2 3 218 2
217 -110 0 -110 0 0 -214z"/>
<path d="M3798 2788 c-2 -13 -2 -60 0 -105 l3 -83 545 0 545 0 -3 103 -3 102
-542 3 -542 2 -3 -22z"/>
<path d="M3798 2464 c-2 -9 -2 -56 0 -105 l3 -89 542 2 542 3 0 100 0 100
-542 3 c-493 2 -542 1 -545 -14z"/>
<path d="M10002 4879 c-206 -40 -347 -244 -312 -448 38 -220 253 -366 469
-318 165 38 285 172 298 335 l6 72 -187 0 -186 0 0 -60 c0 -41 4 -60 13 -61 6
0 49 -1 95 -2 97 -2 104 -13 46 -77 -44 -48 -122 -76 -191 -66 -199 27 -273
289 -119 423 47 42 97 57 167 50 67 -6 120 -34 146 -78 17 -29 19 -29 105 -29
48 0 88 2 88 5 0 3 -11 27 -25 54 -48 95 -140 167 -251 195 -67 17 -96 18
-162 5z"/>
<path d="M8210 4495 l0 -385 220 0 220 0 0 75 0 75 -133 0 c-74 0 -136 2 -138
4 -2 2 -3 38 -1 80 l4 76 129 0 129 0 0 75 0 75 -130 0 -130 0 0 80 0 80 135
0 135 0 0 75 0 75 -220 0 -220 0 0 -385z"/>
<path d="M8875 4867 c-3 -6 -4 -179 -3 -382 l3 -370 83 -3 82 -3 0 238 c0 143
4 233 9 228 5 -6 62 -107 126 -225 65 -118 122 -221 127 -227 7 -9 38 -13 89
-13 l79 0 -2 383 -3 382 -77 3 -78 3 0 -236 c0 -129 -4 -235 -8 -235 -5 0 -27
35 -50 78 -23 42 -52 96 -64 118 -13 23 -52 94 -88 158 l-64 116 -78 0 c-54 0
-80 -4 -83 -13z"/>
<path d="M11520 4495 l0 -385 128 0 c180 0 270 26 353 102 118 106 153 299 82
448 -75 160 -194 220 -435 220 l-128 0 0 -385z m320 201 c27 -14 57 -41 75
-67 28 -41 30 -50 30 -134 0 -83 -2 -93 -30 -134 -38 -57 -101 -90 -175 -94
l-55 -2 -3 220 c-1 121 0 226 3 233 7 20 98 7 155 -22z"/>
<path d="M12300 4630 c0 -260 7 -326 43 -389 33 -58 55 -77 120 -107 53 -24
75 -28 147 -28 47 0 104 6 127 12 65 19 136 81 164 143 23 52 24 62 27 337 l3
282 -79 0 -80 0 -4 -257 c-5 -284 -9 -308 -68 -338 -36 -19 -120 -19 -164 -1
-61 25 -66 51 -66 340 l0 256 -85 0 -85 0 0 -250z"/>
<path d="M13995 4867 c-3 -6 -4 -179 -3 -382 l3 -370 83 -3 82 -3 0 238 c0
143 4 233 9 228 5 -6 62 -107 126 -225 65 -118 122 -221 127 -227 7 -9 38 -13
89 -13 l79 0 -2 383 -3 382 -77 3 -78 3 0 -236 c0 -129 -4 -235 -8 -235 -5 0
-27 35 -50 78 -23 42 -52 96 -64 118 -13 23 -52 94 -88 158 l-64 116 -78 0
c-54 0 -80 -4 -83 -13z"/>
<path d="M7520 4490 l0 -380 86 0 85 0 -3 134 -3 134 90 4 c75 3 99 9 140 31
28 15 61 43 74 63 26 37 51 120 51 166 0 39 -42 128 -76 162 -58 57 -92 66
-276 66 l-168 0 0 -380z m310 237 c58 -45 67 -127 21 -179 -25 -29 -35 -32
-94 -36 l-66 -4 -3 116 -3 116 65 0 c36 0 72 -6 80 -13z"/>
<path d="M10871 4782 c-18 -48 -41 -105 -51 -127 -10 -22 -48 -116 -85 -210
-38 -93 -83 -207 -101 -252 l-33 -83 87 0 87 0 26 73 26 72 149 3 149 2 26
-72 26 -73 87 -3 c47 -1 86 -1 86 2 0 5 -116 301 -134 341 -8 17 -49 117 -91
223 l-77 192 -72 0 -71 0 -34 -88z m158 -245 c22 -65 41 -123 41 -128 0 -5
-43 -9 -96 -9 -94 0 -95 0 -88 23 32 103 88 247 94 240 4 -4 26 -61 49 -126z"/>
<path d="M13374 4848 c-3 -13 -15 -41 -24 -63 -10 -22 -48 -116 -85 -210 -37
-93 -73 -183 -81 -200 -7 -16 -33 -82 -58 -145 l-45 -115 76 -3 c42 -2 82 -1
89 2 7 3 23 37 35 76 l23 70 149 -2 150 -3 26 -70 27 -70 88 -3 c69 -2 87 0
83 10 -25 62 -246 610 -271 671 l-31 77 -72 0 c-66 0 -72 -2 -79 -22z m135
-320 c23 -64 41 -119 41 -122 0 -3 -43 -6 -95 -6 l-95 0 6 28 c4 15 22 70 41
122 19 52 37 102 39 110 7 21 14 8 63 -132z"/>
<path d="M8587 3693 c-2 -5 -3 -35 -2 -68 1 -33 2 -115 3 -182 2 -116 3 -123
22 -123 19 0 20 7 20 136 0 74 4 133 8 130 5 -3 37 -53 72 -111 35 -58 70
-105 77 -105 7 0 37 42 67 93 90 153 85 153 86 -5 l0 -138 25 0 25 0 0 191 0
190 -22 -3 c-16 -2 -42 -37 -99 -131 -42 -70 -78 -129 -80 -132 -3 -2 -29 37
-59 88 -77 132 -109 177 -125 177 -8 0 -16 -3 -18 -7z"/>
<path d="M9336 3673 c-22 -43 -156 -341 -156 -347 0 -3 10 -6 23 -6 18 0 28
11 44 50 l21 50 104 0 104 0 21 -50 c18 -42 25 -50 48 -50 14 0 24 4 21 8 -2
4 -34 73 -69 152 -98 221 -98 220 -124 220 -14 0 -27 -10 -37 -27z m78 -114
c20 -44 36 -85 36 -90 0 -5 -36 -9 -80 -9 -44 0 -80 2 -80 4 0 3 16 39 35 80
19 42 35 81 35 86 0 29 21 1 54 -71z"/>
<path d="M9813 3687 c-50 -18 -75 -49 -75 -92 0 -54 30 -79 120 -104 71 -19
112 -46 112 -72 0 -20 -40 -47 -77 -54 -36 -6 -69 2 -135 30 -25 10 -37 -24
-14 -41 29 -21 114 -37 161 -29 65 9 105 46 105 96 0 50 -31 83 -91 99 -67 17
-129 41 -129 50 0 5 -3 15 -6 23 -3 9 4 25 15 36 17 17 33 21 79 20 31 0 66
-4 77 -8 19 -8 45 3 45 19 0 12 -89 40 -124 39 -17 0 -46 -6 -63 -12z"/>
<path d="M10170 3696 c0 -3 34 -59 75 -124 74 -117 75 -120 75 -186 0 -64 1
-66 25 -66 24 0 25 2 25 69 0 74 2 79 95 226 24 39 44 73 45 78 0 4 -9 7 -20
7 -13 0 -37 -28 -80 -100 -34 -55 -65 -98 -70 -95 -4 2 -33 47 -64 100 -47 79
-61 95 -81 95 -14 0 -25 -2 -25 -4z"/>
<path d="M10800 3653 c-36 -75 -150 -327 -150 -330 0 -2 10 -3 23 -3 18 0 29
11 47 50 l23 50 102 0 102 0 23 -50 c19 -40 28 -50 48 -50 15 0 22 4 19 13 -3
6 -35 77 -72 157 -37 80 -73 160 -81 178 -22 50 -56 44 -84 -15z m70 -58 c11
-25 29 -65 40 -90 l19 -45 -84 0 -85 0 14 33 c41 95 66 147 71 147 3 0 15 -20
25 -45z"/>
<path d="M11230 3510 l0 -190 25 0 c22 0 24 4 27 58 l3 57 54 3 c61 4 75 -5
119 -75 21 -34 33 -43 55 -43 l28 0 -43 61 -42 61 32 27 c42 34 59 96 38 144
-27 66 -78 87 -207 87 l-89 0 0 -190z m216 133 c19 -7 44 -55 44 -83 0 -12
-13 -35 -29 -51 -27 -27 -35 -29 -105 -29 l-76 0 0 83 c0 46 3 87 8 91 7 8
132 -1 158 -11z"/>
<path d="M11861 3678 c-5 -13 -43 -97 -85 -187 -42 -90 -76 -166 -76 -168 0
-1 11 -3 24 -3 19 0 28 10 45 50 l22 50 103 0 103 0 23 -50 c18 -39 29 -50 47
-50 13 0 23 1 23 3 0 2 -32 73 -71 158 -39 85 -77 169 -85 187 -18 40 -59 45
-73 10z m49 -58 c0 -5 16 -42 35 -81 19 -40 35 -74 35 -76 0 -1 -38 -3 -85 -3
l-85 0 14 33 c49 113 67 147 76 142 6 -3 10 -10 10 -15z"/>
<path d="M12280 3510 l0 -190 25 0 c23 0 25 3 25 48 0 42 4 52 38 85 l39 38
73 -86 c60 -69 79 -85 102 -85 27 0 25 3 -58 106 l-87 106 77 77 c42 42 76 80
76 84 0 4 -10 7 -23 7 -16 0 -54 -32 -127 -105 -56 -58 -104 -105 -106 -105
-2 0 -4 47 -4 105 l0 105 -25 0 -25 0 0 -190z"/>
<path d="M12878 3613 c-42 -91 -128 -286 -128 -290 0 -2 10 -3 23 -3 18 0 28
11 44 50 l21 50 105 0 104 0 21 -50 c17 -41 25 -50 46 -50 l26 0 -26 58 c-15
31 -45 100 -69 152 -74 165 -77 170 -102 170 -20 0 -30 -14 -65 -87z m110 -63
l41 -90 -85 0 c-47 0 -84 4 -82 8 47 112 74 172 79 172 3 0 24 -40 47 -90z"/>
<path d="M13270 3680 c0 -18 7 -20 65 -20 l65 0 0 -170 0 -170 25 0 25 0 2
168 3 167 60 0 c55 0 60 2 63 23 l3 22 -155 0 c-149 0 -156 -1 -156 -20z"/>
</g>
</svg>
